<svg xmlns="http://www.w3.org/2000/svg" width="462.03" height="64.44" viewBox="0 0 462.03 64.44"><path d="M52.94,42.48q2.3,2.24,6.62,2.23a9.08,9.08,0,0,0,5.33-1.55,6.41,6.41,0,0,0,2.73-3.27h9Q74.46,46.58,70,49.46a19.52,19.52,0,0,1-10.8,2.88,21.17,21.17,0,0,1-7.92-1.4,16.52,16.52,0,0,1-6-4,18,18,0,0,1-3.78-6.19,22.62,22.62,0,0,1-1.33-7.92,21.74,21.74,0,0,1,1.37-7.77,18,18,0,0,1,9.9-10.37,19.26,19.26,0,0,1,7.74-1.51A17.74,17.74,0,0,1,67.48,15a16.6,16.6,0,0,1,5.79,4.93A20.17,20.17,0,0,1,76.55,27a26.4,26.4,0,0,1,.72,8.28H50.41Q50.64,40.25,52.94,42.48ZM64.49,22.9q-1.83-2-5.58-2a8.93,8.93,0,0,0-4.07.83,7.57,7.57,0,0,0-4,4.64,12.15,12.15,0,0,0-.47,2.45H67.05A11.83,11.83,0,0,0,64.49,22.9Z"/><path d="M80,24.73a17.38,17.38,0,0,1,3.88-6.19,17.56,17.56,0,0,1,6-4,21.17,21.17,0,0,1,7.92-1.4,21.49,21.49,0,0,1,8,1.4,17,17,0,0,1,10,10.15,22.94,22.94,0,0,1,1.37,8.1,22.62,22.62,0,0,1-1.37,8.07,17.41,17.41,0,0,1-3.89,6.15A17,17,0,0,1,105.82,51a22.12,22.12,0,0,1-8,1.36A21.79,21.79,0,0,1,89.94,51a17.07,17.07,0,0,1-6-3.93A17.39,17.39,0,0,1,80,40.9a22.4,22.4,0,0,1-1.37-8.07A22.72,22.72,0,0,1,80,24.73Zm9.28,12.46A11.52,11.52,0,0,0,90.77,41a7.79,7.79,0,0,0,2.77,2.7,8.37,8.37,0,0,0,4.32,1,8.6,8.6,0,0,0,4.36-1A7.82,7.82,0,0,0,105,41a11.72,11.72,0,0,0,1.47-3.81,21.71,21.71,0,0,0,.43-4.36,22.15,22.15,0,0,0-.43-4.39A11.44,11.44,0,0,0,105,24.62a8.36,8.36,0,0,0-2.81-2.7,8.5,8.5,0,0,0-4.36-1,7.84,7.84,0,0,0-7.09,3.74,11.24,11.24,0,0,0-1.48,3.82,22.93,22.93,0,0,0-.43,4.39A22.46,22.46,0,0,0,89.29,37.19Z"/><path d="M168.87,0V51.41H158.65V0Z"/><path d="M182.92,42.48q2.31,2.24,6.63,2.23a9,9,0,0,0,5.32-1.55,6.43,6.43,0,0,0,2.74-3.27h9q-2.16,6.69-6.62,9.57a19.52,19.52,0,0,1-10.8,2.88,21.17,21.17,0,0,1-7.92-1.4,16.43,16.43,0,0,1-6-4,18,18,0,0,1-3.78-6.19,22.62,22.62,0,0,1-1.33-7.92,21.52,21.52,0,0,1,1.37-7.77,18.19,18.19,0,0,1,3.88-6.23,18.37,18.37,0,0,1,6-4.14,19.19,19.19,0,0,1,7.74-1.51A17.79,17.79,0,0,1,197.47,15a16.6,16.6,0,0,1,5.79,4.93A20.34,20.34,0,0,1,206.54,27a26.4,26.4,0,0,1,.72,8.28H180.4Q180.63,40.25,182.92,42.48ZM194.48,22.9q-1.84-2-5.58-2a8.93,8.93,0,0,0-4.07.83,7.68,7.68,0,0,0-2.59,2.05,7.47,7.47,0,0,0-1.37,2.59,12.15,12.15,0,0,0-.47,2.45H197A11.83,11.83,0,0,0,194.48,22.9Z"/><path d="M219,42.16a5.87,5.87,0,0,0,1.76,1.94,7.65,7.65,0,0,0,2.49,1.12,11.6,11.6,0,0,0,2.91.36,10.83,10.83,0,0,0,2.27-.26,7.52,7.52,0,0,0,2.16-.79,4.87,4.87,0,0,0,1.62-1.44,3.79,3.79,0,0,0,.65-2.27q0-2.3-3.06-3.45a61.26,61.26,0,0,0-8.53-2.31c-1.49-.33-2.94-.73-4.36-1.18a15,15,0,0,1-3.78-1.8,8.81,8.81,0,0,1-2.66-2.81,7.89,7.89,0,0,1-1-4.14,11.29,11.29,0,0,1,1.4-5.91,10.4,10.4,0,0,1,3.71-3.63,16.22,16.22,0,0,1,5.18-1.87,32,32,0,0,1,5.91-.54,29.89,29.89,0,0,1,5.87.57,15.75,15.75,0,0,1,5.07,1.95,11.58,11.58,0,0,1,3.71,3.63,12.23,12.23,0,0,1,1.76,5.73h-9.72q-.21-3-2.23-4a10.15,10.15,0,0,0-4.75-1,18,18,0,0,0-1.87.1,6.54,6.54,0,0,0-1.84.47,3.72,3.72,0,0,0-1.4,1.05,2.71,2.71,0,0,0-.58,1.83,2.8,2.8,0,0,0,1,2.23,7.7,7.7,0,0,0,2.63,1.41,32.89,32.89,0,0,0,3.71,1c1.39.29,2.8.6,4.24.94a41.87,41.87,0,0,1,4.36,1.22,14.27,14.27,0,0,1,3.78,1.91,9.17,9.17,0,0,1,2.66,3,8.6,8.6,0,0,1,1,4.36,11.28,11.28,0,0,1-5.33,10.15,15.53,15.53,0,0,1-5.43,2.12,31.56,31.56,0,0,1-6.23.61,31.06,31.06,0,0,1-6.34-.64,17,17,0,0,1-5.5-2.16,12.31,12.31,0,0,1-4-4,12.48,12.48,0,0,1-1.7-6.23h9.72A5.6,5.6,0,0,0,219,42.16Z"/><path d="M273.35,20.88a7.12,7.12,0,0,0-4.1,1.12,8.67,8.67,0,0,0-2.7,2.88,12.35,12.35,0,0,0-1.48,3.88,21,21,0,0,0-.43,4.22,20.05,20.05,0,0,0,.43,4.1,13,13,0,0,0,1.4,3.78,8.1,8.1,0,0,0,2.63,2.77,7.25,7.25,0,0,0,4,1.08,7.49,7.49,0,0,0,5.65-2.05,9.72,9.72,0,0,0,2.48-5.51h9.87c-.68,5-2.6,8.71-5.77,11.31s-7.22,3.88-12.16,3.88a20.29,20.29,0,0,1-7.67-1.4A17,17,0,0,1,259.6,47a17.89,17.89,0,0,1-3.82-6,20.83,20.83,0,0,1-1.37-7.66,24.54,24.54,0,0,1,1.27-8,18,18,0,0,1,3.7-6.41,17,17,0,0,1,6-4.21,20.26,20.26,0,0,1,8.06-1.51,23.28,23.28,0,0,1,6.38.86,17.12,17.12,0,0,1,5.47,2.63,14.13,14.13,0,0,1,3.92,4.39,13.93,13.93,0,0,1,1.73,6.23h-10Q279.9,20.89,273.35,20.88Z"/><path d="M302.66,0V19.37h.22a11.83,11.83,0,0,1,5-4.72,13.42,13.42,0,0,1,5.9-1.47,17.42,17.42,0,0,1,6.73,1.11,10.07,10.07,0,0,1,4.14,3.1,12,12,0,0,1,2.13,4.82,30.61,30.61,0,0,1,.61,6.3v22.9H317.13v-21q0-4.61-1.44-6.87t-5.11-2.27q-4.17,0-6.05,2.48c-1.25,1.66-1.87,4.38-1.87,8.18V51.41H292.44V0Z"/><path d="M363.57,51.41h-9.69V49.71s0-1.28,0-1.9a13.38,13.38,0,0,1-5.76,3.53,23.17,23.17,0,0,1-6.77,1,18.43,18.43,0,0,1-5-.64,11.58,11.58,0,0,1-4-2,9.36,9.36,0,0,1-2.7-3.46,11.61,11.61,0,0,1-1-5A10.74,10.74,0,0,1,329.78,36a9.28,9.28,0,0,1,2.88-3.28,12.81,12.81,0,0,1,4-1.84,44.73,44.73,0,0,1,4.57-1c1.54-.24,3.05-.43,4.54-.57a28.21,28.21,0,0,0,4-.65,6.93,6.93,0,0,0,2.73-1.26,2.77,2.77,0,0,0,.94-2.41,5.42,5.42,0,0,0-.54-2.63,4,4,0,0,0-1.44-1.51,5.69,5.69,0,0,0-2.09-.72A17,17,0,0,0,346.8,20a7.79,7.79,0,0,0-4.75,1.29,5.8,5.8,0,0,0-2,4.32H329.81a12,12,0,0,1,1.8-6,12.26,12.26,0,0,1,4-3.82,17.7,17.7,0,0,1,5.51-2.05,31.16,31.16,0,0,1,6.16-.61,42.4,42.4,0,0,1,5.69.39,17.44,17.44,0,0,1,5.25,1.55,10.42,10.42,0,0,1,3.89,3.2,9,9,0,0,1,1.51,5.44m-10.22,9.43a4.38,4.38,0,0,1-1.62.9,15.55,15.55,0,0,1-2.09.54q-1.11.23-2.34.36c-.82.1-1.63.22-2.45.36a19.87,19.87,0,0,0-2.27.58,6.65,6.65,0,0,0-1.94,1,4.64,4.64,0,0,0-1.33,1.55,4.9,4.9,0,0,0-.51,2.37,4.78,4.78,0,0,0,.51,2.31,3.8,3.8,0,0,0,1.37,1.47,5.61,5.61,0,0,0,2,.76,13.25,13.25,0,0,0,2.38.22,9.09,9.09,0,0,0,4.68-1,6.82,6.82,0,0,0,2.45-2.41,7.91,7.91,0,0,0,1-2.85,19.57,19.57,0,0,0,.18-2.3Z"/><path d="M374.6,14.18v5h.15a14.62,14.62,0,0,1,4.86-4.46,13.18,13.18,0,0,1,6.51-1.58,15.06,15.06,0,0,1,6.45,1.36A9,9,0,0,1,397,19.37a16.06,16.06,0,0,1,4.5-4.32,12,12,0,0,1,6.74-1.87,19.88,19.88,0,0,1,5.47.72A11.09,11.09,0,0,1,418,16.2a10.7,10.7,0,0,1,2.81,4.14,16.85,16.85,0,0,1,1,6.16V51.41H411.61V30.31c0-1.25-.05-2.42-.14-3.53a7.46,7.46,0,0,0-.8-2.88,4.79,4.79,0,0,0-1.9-1.94,6.9,6.9,0,0,0-3.42-.72,6.53,6.53,0,0,0-3.49.83,5.92,5.92,0,0,0-2.09,2.16,8.55,8.55,0,0,0-1,3,23,23,0,0,0-.25,3.42V51.41H388.28V30.53c0-1.11,0-2.2-.07-3.28a9.3,9.3,0,0,0-.61-3,4.58,4.58,0,0,0-1.8-2.19,6.82,6.82,0,0,0-3.71-.83,7.91,7.91,0,0,0-1.91.32,6.38,6.38,0,0,0-2.3,1.23A7.08,7.08,0,0,0,376,25.38a10.49,10.49,0,0,0-.79,4.43v21.6H365V14.18Z"/><path d="M37.52,24.94a17,17,0,0,0-10-10.15,21.7,21.7,0,0,0-8-1.4,21.37,21.37,0,0,0-7.92,1.4,20.51,20.51,0,0,0-1.95.92V14.18H0V64.44H10.22V50.54c.47.23.95.45,1.45.65a21.79,21.79,0,0,0,7.92,1.37,22.12,22.12,0,0,0,8-1.37,16.89,16.89,0,0,0,6.08-3.93,17.41,17.41,0,0,0,3.89-6.15A22.62,22.62,0,0,0,38.89,33,22.94,22.94,0,0,0,37.52,24.94ZM28.23,37.4a11.78,11.78,0,0,1-1.47,3.82A8,8,0,0,1,24,43.92a8.71,8.71,0,0,1-4.36,1,8.47,8.47,0,0,1-4.32-1,8,8,0,0,1-2.77-2.7A11.57,11.57,0,0,1,11,37.4,22.46,22.46,0,0,1,10.59,33,23,23,0,0,1,11,28.65a11.11,11.11,0,0,1,1.48-3.81,7.88,7.88,0,0,1,7.09-3.75A8.4,8.4,0,0,1,24,22.14a8.17,8.17,0,0,1,2.81,2.7,11.3,11.3,0,0,1,1.47,3.81A22.23,22.23,0,0,1,28.66,33,21.71,21.71,0,0,1,28.23,37.4Z"/><path d="M156,24.86a17,17,0,0,0-10-10.15,21.49,21.49,0,0,0-8-1.4,21.17,21.17,0,0,0-7.92,1.4,18.32,18.32,0,0,0-1.95.92V14.1h-9.72V64.36h10.22V50.46c.47.23.95.45,1.45.65a21.79,21.79,0,0,0,7.92,1.36,22.12,22.12,0,0,0,8-1.36,17,17,0,0,0,6.08-3.93A17.41,17.41,0,0,0,156,41,22.62,22.62,0,0,0,157.35,33,22.94,22.94,0,0,0,156,24.86Zm-9.29,12.46a11.72,11.72,0,0,1-1.47,3.81,7.82,7.82,0,0,1-2.81,2.7,8.6,8.6,0,0,1-4.36,1,8.37,8.37,0,0,1-4.32-1,7.87,7.87,0,0,1-2.77-2.7,11.52,11.52,0,0,1-1.48-3.81,22.46,22.46,0,0,1-.43-4.36,22.93,22.93,0,0,1,.43-4.39A11.24,11.24,0,0,1,131,24.75a8.42,8.42,0,0,1,2.77-2.7,8.27,8.27,0,0,1,4.32-1,8.5,8.5,0,0,1,4.36,1,8.36,8.36,0,0,1,2.81,2.7,11.44,11.44,0,0,1,1.47,3.82,22.15,22.15,0,0,1,.43,4.39A21.71,21.71,0,0,1,146.69,37.32Z"/><path d="M460.66,24.52a17,17,0,0,0-10-10.16,21.7,21.7,0,0,0-8-1.4,21.37,21.37,0,0,0-7.92,1.4,19.46,19.46,0,0,0-1.95.93V13.76h-9.72V64h10.22V50.12c.47.23.95.45,1.45.64a21.79,21.79,0,0,0,7.92,1.37,22.12,22.12,0,0,0,8-1.37,17,17,0,0,0,6.08-3.92,17.54,17.54,0,0,0,3.89-6.16A22.6,22.6,0,0,0,462,32.62,22.86,22.86,0,0,0,460.66,24.52ZM451.37,37a11.57,11.57,0,0,1-1.48,3.82,7.72,7.72,0,0,1-2.8,2.7,8.71,8.71,0,0,1-4.36,1,8.47,8.47,0,0,1-4.32-1,7.79,7.79,0,0,1-2.77-2.7A11.57,11.57,0,0,1,434.16,37a21.54,21.54,0,0,1-.43-4.35,22.08,22.08,0,0,1,.43-4.39,11.08,11.08,0,0,1,1.48-3.82,8.32,8.32,0,0,1,2.77-2.7,8.18,8.18,0,0,1,4.32-1.05,8.4,8.4,0,0,1,4.36,1.05,8.23,8.23,0,0,1,2.8,2.7,11.08,11.08,0,0,1,1.48,3.82,22.08,22.08,0,0,1,.43,4.39A21.54,21.54,0,0,1,451.37,37Z"/></svg>